<svg width="48" height="55" viewBox="0 0 48 55" fill="none" xmlns="http://www.w3.org/2000/svg">
<path d="M20.52 0C16.758 0 13.68 3.078 13.68 6.84H6.84C3.078 6.84 0 9.918 0 13.68H47.88C47.88 9.918 44.802 6.84 41.04 6.84H34.2C34.2 3.078 31.122 0 27.36 0H20.52ZM6.84 20.52V53.4204C6.84 54.1728 7.3872 54.72 8.1396 54.72H39.8088C40.5612 54.72 41.1084 54.1728 41.1084 53.4204V20.52H34.2684V44.46C34.2684 46.3752 32.7636 47.88 30.8484 47.88C28.9332 47.88 27.4284 46.3752 27.4284 44.46V20.52H20.5884V44.46C20.5884 46.3752 19.0836 47.88 17.1684 47.88C15.2532 47.88 13.7484 46.3752 13.7484 44.46V20.52H6.9084H6.84Z" fill="#7C3D92"/>
</svg>
